<svg xmlns="http://www.w3.org/2000/svg" version="1.1" xmlns:xlink="http://www.w3.org/1999/xlink" xmlns:svgjs="http://svgjs.dev/svgjs" width="1500" height="443" viewBox="0 0 1500 443"><g transform="matrix(1,0,0,1,-0.9090909090909918,0.24498007971817515)"><svg viewBox="0 0 396 117" data-background-color="#f9fbf7" preserveAspectRatio="xMidYMid meet" height="443" width="1500" xmlns="http://www.w3.org/2000/svg" xmlns:xlink="http://www.w3.org/1999/xlink"><g id="tight-bounds" transform="matrix(1,0,0,1,0.2400000000000091,-0.06470128516258455)"><svg viewBox="0 0 395.52 117.12940257032515" height="117.12940257032515" width="395.52"><g><svg viewBox="0 0 627.9530936385308 185.96220342857143" height="117.12940257032515" width="395.52"><g transform="matrix(1,0,0,1,232.43309363853098,52.62191804081633)"><svg viewBox="0 0 395.5199999999999 80.71836734693876" height="80.71836734693876" width="395.5199999999999"><g id="textblocktransform"><svg viewBox="0 0 395.5199999999999 80.71836734693876" height="80.71836734693876" width="395.5199999999999" id="textblock"><g><svg viewBox="0 0 395.5199999999999 80.71836734693876" height="80.71836734693876" width="395.5199999999999"><g transform="matrix(1,0,0,1,0,0)"><svg width="395.5199999999999" viewBox="1.7999999999999998 -28 176.38 36" height="80.71836734693876" data-palette-color="#ffdc00"><path d="M14-8L18-8Q18.2-7.2 18.2-6L18.2-6Q18.2-4.85 18-4L18-4 16-4Q16.2-3.2 16.2-2L16.2-2Q16.2-0.85 16 0L16 0 6 0Q5.8-0.85 5.8-2L5.8-2Q5.8-3.2 6-4L6-4 4-4Q3.8-4.85 3.8-6L3.8-6Q3.8-7.2 4-8L4-8 2-8Q1.8-8.85 1.8-10L1.8-10Q1.8-11.2 2-12L2-12 4-12Q3.8-12.85 3.8-14L3.8-14Q3.8-15.2 4-16L4-16 6-16Q5.8-16.85 5.8-18L5.8-18Q5.8-19.2 6-20L6-20 16-20Q16.2-19.2 16.2-18L16.2-18Q16.2-16.85 16-16L16-16 18-16Q18.2-15.2 18.2-14L18.2-14Q18.2-12.85 18-12L18-12 14-12Q13.8-12.85 13.8-14L13.8-14Q13.8-15.2 14-16L14-16 8-16Q8.2-15.2 8.2-14L8.2-14Q8.2-12.85 8-12L8-12 6-12Q6.2-11.2 6.2-10L6.2-10Q6.2-8.85 6-8L6-8 8-8Q8.2-7.2 8.2-6L8.2-6Q8.2-4.85 8-4L8-4 14-4Q13.8-4.85 13.8-6L13.8-6Q13.8-7.2 14-8L14-8ZM38.2-10Q38.2-8.85 38-8L38-8 36.5-8Q36.7-7.2 36.7-6L36.7-6Q36.7-4.85 36.5-4L36.5-4 34-4Q34.2-3.2 34.2-2L34.2-2Q34.2-0.85 34 0L34 0 26 0Q25.8-0.85 25.8-2L25.8-2Q25.8-3.2 26-4L26-4 23.5-4Q23.3-4.85 23.3-6L23.3-6Q23.3-7.2 23.5-8L23.5-8 22-8Q21.8-8.85 21.8-10L21.8-10Q21.8-11.2 22-12L22-12 23.5-12Q23.3-12.85 23.3-14L23.3-14Q23.3-15.2 23.5-16L23.5-16 26-16Q25.8-16.85 25.8-18L25.8-18Q25.8-19.2 26-20L26-20 34-20Q34.2-19.2 34.2-18L34.2-18Q34.2-16.85 34-16L34-16 36.5-16Q36.7-15.2 36.7-14L36.7-14Q36.7-12.85 36.5-12L36.5-12 38-12Q38.2-11.2 38.2-10L38.2-10ZM32.5-8L34-8Q33.8-8.85 33.8-10L33.8-10Q33.8-11.2 34-12L34-12 32.5-12Q32.3-12.85 32.3-14L32.3-14Q32.3-15.2 32.5-16L32.5-16 27.5-16Q27.7-15.2 27.7-14L27.7-14Q27.7-12.85 27.5-12L27.5-12 26-12Q26.2-11.2 26.2-10L26.2-10Q26.2-8.85 26-8L26-8 27.5-8Q27.7-7.2 27.7-6L27.7-6Q27.7-4.85 27.5-4L27.5-4 32.5-4Q32.3-4.85 32.3-6L32.3-6Q32.3-7.2 32.5-8L32.5-8ZM58.2-10Q58.2-8.85 58-8L58-8 56-8Q56.2-7.2 56.2-6L56.2-6Q56.2-4.85 56-4L56-4 54-4Q54.2-3.2 54.2-2L54.2-2Q54.2-0.85 54 0L54 0 46 0Q46.2 0.8 46.2 2L46.2 2Q46.2 3.15 46 4L46 4Q46.2 4.8 46.2 6L46.2 6Q46.2 7.15 46 8L46 8 42 8Q41.8 7.15 41.8 6L41.8 6Q41.8 4.8 42 4L42 4Q41.8 3.15 41.8 2L41.8 2Q41.8 0.8 42 0L42 0Q41.8-0.85 41.8-2L41.8-2Q41.8-3.2 42-4L42-4Q41.8-4.85 41.8-6L41.8-6Q41.8-7.2 42-8L42-8Q41.8-8.85 41.8-10L41.8-10Q41.8-11.2 42-12L42-12Q41.8-12.85 41.8-14L41.8-14Q41.8-15.2 42-16L42-16Q41.8-16.85 41.8-18L41.8-18Q41.8-19.2 42-20L42-20 46-20Q46.2-19.2 46.2-18L46.2-18Q46.2-16.85 46-16L46-16 48-16Q48.2-15.2 48.2-14L48.2-14Q48.2-12.85 48-12L48-12 46-12Q46.2-11.2 46.2-10L46.2-10Q46.2-8.85 46-8L46-8Q46.2-7.2 46.2-6L46.2-6Q46.2-4.85 46-4L46-4 52-4Q51.8-4.85 51.8-6L51.8-6Q51.8-7.2 52-8L52-8 54-8Q53.8-8.85 53.8-10L53.8-10Q53.8-11.2 54-12L54-12 52-12Q51.8-12.85 51.8-14L51.8-14Q51.8-15.2 52-16L52-16 48-16Q47.8-16.85 47.8-18L47.8-18Q47.8-19.2 48-20L48-20 54-20Q54.2-19.2 54.2-18L54.2-18Q54.2-16.85 54-16L54-16 56-16Q56.2-15.2 56.2-14L56.2-14Q56.2-12.85 56-12L56-12 58-12Q58.2-11.2 58.2-10L58.2-10ZM78.19-18Q78.19-16.85 77.99-16L77.99-16 76.49-16Q76.69-15.2 76.69-14L76.69-14Q76.69-12.85 76.49-12L76.49-12 74.99-12Q75.19-11.2 75.19-10L75.19-10Q75.19-8.85 74.99-8L74.99-8 73.99-8Q74.19-7.2 74.19-6L74.19-6Q74.19-4.85 73.99-4L73.99-4 72.49-4Q72.69-3.2 72.69-2L72.69-2Q72.69-0.85 72.49 0L72.49 0 71.49 0Q71.69 0.8 71.69 2L71.69 2Q71.69 3.15 71.49 4L71.49 4 69.49 4Q69.69 4.8 69.69 6L69.69 6Q69.69 7.15 69.49 8L69.49 8 63.49 8Q63.29 7.15 63.29 6L63.29 6Q63.29 4.8 63.49 4L63.49 4 67.49 4Q67.29 3.15 67.29 2L67.29 2Q67.29 0.8 67.49 0L67.49 0Q67.29-0.85 67.29-2L67.29-2Q67.29-3.2 67.49-4L67.49-4 65.49-4Q65.29-4.85 65.29-6L65.29-6Q65.29-7.2 65.49-8L65.49-8 64.49-8Q64.29-8.85 64.29-10L64.29-10Q64.29-11.2 64.49-12L64.49-12 62.99-12Q62.79-12.85 62.79-14L62.79-14Q62.79-15.2 62.99-16L62.99-16 61.49-16Q61.29-16.85 61.29-18L61.29-18Q61.29-19.2 61.49-20L61.49-20 65.49-20Q65.69-19.2 65.69-18L65.69-18Q65.69-16.85 65.49-16L65.49-16 66.99-16Q67.19-15.2 67.19-14L67.19-14Q67.19-12.85 66.99-12L66.99-12 68.49-12Q68.69-11.2 68.69-10L68.69-10Q68.69-8.85 68.49-8L68.49-8Q68.69-7.2 68.69-6L68.69-6Q68.69-4.85 68.49-4L68.49-4 69.99-4Q69.79-4.85 69.79-6L69.79-6Q69.79-7.2 69.99-8L69.99-8 70.99-8Q70.79-8.85 70.79-10L70.79-10Q70.79-11.2 70.99-12L70.99-12 72.49-12Q72.29-12.85 72.29-14L72.29-14Q72.29-15.2 72.49-16L72.49-16 73.99-16Q73.79-16.85 73.79-18L73.79-18Q73.79-19.2 73.99-20L73.99-20 77.99-20Q78.19-19.2 78.19-18L78.19-18ZM113.99-8L117.99-8Q118.19-7.2 118.19-6L118.19-6Q118.19-4.85 117.99-4L117.99-4 115.99-4Q116.19-3.2 116.19-2L116.19-2Q116.19-0.85 115.99 0L115.99 0 105.99 0Q105.79-0.85 105.79-2L105.79-2Q105.79-3.2 105.99-4L105.99-4 103.99-4Q103.79-4.85 103.79-6L103.79-6Q103.79-7.2 103.99-8L103.99-8 101.99-8Q101.79-8.85 101.79-10L101.79-10Q101.79-11.2 101.99-12L101.99-12 103.99-12Q103.79-12.85 103.79-14L103.79-14Q103.79-15.2 103.99-16L103.99-16 105.99-16Q105.79-16.85 105.79-18L105.79-18Q105.79-19.2 105.99-20L105.99-20 115.99-20Q116.19-19.2 116.19-18L116.19-18Q116.19-16.85 115.99-16L115.99-16 117.99-16Q118.19-15.2 118.19-14L118.19-14Q118.19-12.85 117.99-12L117.99-12 113.99-12Q113.79-12.85 113.79-14L113.79-14Q113.79-15.2 113.99-16L113.99-16 107.99-16Q108.19-15.2 108.19-14L108.19-14Q108.19-12.85 107.99-12L107.99-12 105.99-12Q106.19-11.2 106.19-10L106.19-10Q106.19-8.85 105.99-8L105.99-8 107.99-8Q108.19-7.2 108.19-6L108.19-6Q108.19-4.85 107.99-4L107.99-4 113.99-4Q113.79-4.85 113.79-6L113.79-6Q113.79-7.2 113.99-8L113.99-8ZM138.19-10Q138.19-8.85 137.99-8L137.99-8 136.49-8Q136.69-7.2 136.69-6L136.69-6Q136.69-4.85 136.49-4L136.49-4 133.99-4Q134.19-3.2 134.19-2L134.19-2Q134.19-0.85 133.99 0L133.99 0 125.99 0Q125.79-0.85 125.79-2L125.79-2Q125.79-3.2 125.99-4L125.99-4 123.49-4Q123.29-4.85 123.29-6L123.29-6Q123.29-7.2 123.49-8L123.49-8 121.99-8Q121.79-8.85 121.79-10L121.79-10Q121.79-11.2 121.99-12L121.99-12 123.49-12Q123.29-12.85 123.29-14L123.29-14Q123.29-15.2 123.49-16L123.49-16 125.99-16Q125.79-16.85 125.79-18L125.79-18Q125.79-19.2 125.99-20L125.99-20 133.99-20Q134.19-19.2 134.19-18L134.19-18Q134.19-16.85 133.99-16L133.99-16 136.49-16Q136.69-15.2 136.69-14L136.69-14Q136.69-12.85 136.49-12L136.49-12 137.99-12Q138.19-11.2 138.19-10L138.19-10ZM132.49-8L133.99-8Q133.79-8.85 133.79-10L133.79-10Q133.79-11.2 133.99-12L133.99-12 132.49-12Q132.29-12.85 132.29-14L132.29-14Q132.29-15.2 132.49-16L132.49-16 127.49-16Q127.69-15.2 127.69-14L127.69-14Q127.69-12.85 127.49-12L127.49-12 125.99-12Q126.19-11.2 126.19-10L126.19-10Q126.19-8.85 125.99-8L125.99-8 127.49-8Q127.69-7.2 127.69-6L127.69-6Q127.69-4.85 127.49-4L127.49-4 132.49-4Q132.29-4.85 132.29-6L132.29-6Q132.29-7.2 132.49-8L132.49-8ZM157.98-24Q158.18-23.2 158.18-22L158.18-22Q158.18-20.85 157.98-20L157.98-20Q158.18-19.2 158.18-18L158.18-18Q158.18-16.85 157.98-16L157.98-16Q158.18-15.2 158.18-14L158.18-14Q158.18-12.85 157.98-12L157.98-12Q158.18-11.2 158.18-10L158.18-10Q158.18-8.85 157.98-8L157.98-8Q158.18-7.2 158.18-6L158.18-6Q158.18-4.85 157.98-4L157.98-4Q158.18-3.2 158.18-2L158.18-2Q158.18-0.85 157.98 0L157.98 0 153.98 0Q153.78-0.85 153.78-2L153.78-2Q153.78-3.2 153.98-4L153.98-4 152.48-4Q152.28-4.85 152.28-6L152.28-6Q152.28-7.2 152.48-8L152.48-8 153.98-8Q153.78-8.85 153.78-10L153.78-10Q153.78-11.2 153.98-12L153.98-12 152.48-12Q152.28-12.85 152.28-14L152.28-14Q152.28-15.2 152.48-16L152.48-16 153.98-16Q153.78-16.85 153.78-18L153.78-18Q153.78-19.2 153.98-20L153.98-20Q153.78-20.85 153.78-22L153.78-22Q153.78-23.2 153.98-24L153.98-24Q153.78-24.85 153.78-26L153.78-26Q153.78-27.2 153.98-28L153.98-28 157.98-28Q158.18-27.2 158.18-26L158.18-26Q158.18-24.85 157.98-24L157.98-24ZM151.68-18Q151.68-16.85 151.48-16L151.48-16 146.48-16Q146.68-15.2 146.68-14L146.68-14Q146.68-12.85 146.48-12L146.48-12 144.98-12Q145.18-11.2 145.18-10L145.18-10Q145.18-8.85 144.98-8L144.98-8 146.48-8Q146.68-7.2 146.68-6L146.68-6Q146.68-4.85 146.48-4L146.48-4 151.48-4Q151.68-3.2 151.68-2L151.68-2Q151.68-0.85 151.48 0L151.48 0 145.98 0Q145.78-0.85 145.78-2L145.78-2Q145.78-3.2 145.98-4L145.98-4 143.48-4Q143.28-4.85 143.28-6L143.28-6Q143.28-7.2 143.48-8L143.48-8 141.98-8Q141.78-8.85 141.78-10L141.78-10Q141.78-11.2 141.98-12L141.98-12 143.48-12Q143.28-12.85 143.28-14L143.28-14Q143.28-15.2 143.48-16L143.48-16 145.98-16Q145.78-16.85 145.78-18L145.78-18Q145.78-19.2 145.98-20L145.98-20 151.48-20Q151.68-19.2 151.68-18L151.68-18ZM178.18-14Q178.18-12.85 177.98-12L177.98-12Q178.18-11.2 178.18-10L178.18-10Q178.18-8.85 177.98-8L177.98-8 167.48-8Q167.68-7.2 167.68-6L167.68-6Q167.68-4.85 167.48-4L167.48-4 175.98-4Q176.18-3.2 176.18-2L176.18-2Q176.18-0.85 175.98 0L175.98 0 165.98 0Q165.78-0.85 165.78-2L165.78-2Q165.78-3.2 165.98-4L165.98-4 163.48-4Q163.28-4.85 163.28-6L163.28-6Q163.28-7.2 163.48-8L163.48-8 161.98-8Q161.78-8.85 161.78-10L161.78-10Q161.78-11.2 161.98-12L161.98-12 163.48-12Q163.28-12.85 163.28-14L163.28-14Q163.28-15.2 163.48-16L163.48-16 165.98-16Q165.78-16.85 165.78-18L165.78-18Q165.78-19.2 165.98-20L165.98-20 175.98-20Q176.18-19.2 176.18-18L176.18-18Q176.18-16.85 175.98-16L175.98-16 177.98-16Q178.18-15.2 178.18-14L178.18-14ZM173.98-12Q173.78-12.85 173.78-14L173.78-14Q173.78-15.2 173.98-16L173.98-16 167.48-16Q167.68-15.2 167.68-14L167.68-14Q167.68-12.85 167.48-12L167.48-12 173.98-12Z" opacity="1" transform="matrix(1,0,0,1,0,0)" fill="#ffdc00" class="wordmark-text-0" data-fill-palette-color="primary" id="text-0"></path></svg></g></svg></g></svg></g></svg></g><g><svg viewBox="0 0 213.37742434873505 185.96220342857143" height="185.96220342857143" width="213.37742434873505"><g><svg xmlns="http://www.w3.org/2000/svg" xml:space="preserve" version="1.0" viewBox="1.118 4.119 47.921 41.764" x="0" y="0" height="185.96220342857143" width="213.37742434873505" class="icon-icon-0" data-fill-palette-color="accent" id="icon-0"><path d="M10.821 24.951L21 32.193v6.842L1.118 24.891 21 11.118V17.9zM49.039 25.277l-13.224-9.214-1.596 5.649 5.256 3.626-8.064 5.632L29 38.79v0.634zM31.52 4.119l4.784 1.384-11.685 40.38-4.785-1.386z" fill="#ffdc00" data-fill-palette-color="accent"></path></svg></g></svg></g></svg></g><defs></defs></svg><rect width="395.52" height="117.12940257032515" fill="none" stroke="none" visibility="hidden"></rect></g></svg></g></svg>